<?xml version="1.0" encoding="UTF-8" standalone="no"?>
<!-- Created with Inkscape (http://www.inkscape.org/) -->

<svg
   width="115.38669mm"
   height="24.670877mm"
   viewBox="0 0 115.38668 24.670878"
   version="1.1"
   id="svg5"
   xml:space="preserve"
   sodipodi:docname="Supernova_White_small.svg"
   inkscape:version="1.2 (dc2aedaf03, 2022-05-15)"
   xmlns:inkscape="http://www.inkscape.org/namespaces/inkscape"
   xmlns:sodipodi="http://sodipodi.sourceforge.net/DTD/sodipodi-0.dtd"
   xmlns="http://www.w3.org/2000/svg"
   xmlns:svg="http://www.w3.org/2000/svg"><sodipodi:namedview
     id="namedview10"
     pagecolor="#ffffff"
     bordercolor="#000000"
     borderopacity="0.25"
     inkscape:showpageshadow="2"
     inkscape:pageopacity="0.0"
     inkscape:pagecheckerboard="0"
     inkscape:deskcolor="#d1d1d1"
     inkscape:document-units="mm"
     showgrid="false"
     inkscape:zoom="2.7837191"
     inkscape:cx="183.92661"
     inkscape:cy="69.331709"
     inkscape:window-width="2560"
     inkscape:window-height="1377"
     inkscape:window-x="-8"
     inkscape:window-y="-8"
     inkscape:window-maximized="1"
     inkscape:current-layer="svg5" /><defs
     id="defs2" /><g
     id="layer1"
     transform="translate(-26.067048,-98.563612)"><g
       aria-label="UPERNOVA"
       id="text236"
       style="font-size:19.7556px;font-family:Impact;-inkscape-font-specification:Impact;letter-spacing:2.64583px;stroke-linecap:square;stroke-linejoin:bevel;paint-order:markers stroke fill" /><g
       aria-label="S"
       id="text310"
       style="font-size:29.9861px;font-family:Impact;-inkscape-font-specification:Impact;stroke-linecap:square;stroke-linejoin:bevel;paint-order:markers stroke fill" /><g
       aria-label="U"
       id="text236-8"
       style="font-size:19.7556px;font-family:Impact;-inkscape-font-specification:Impact;letter-spacing:2.64583px;stroke-linecap:square;stroke-linejoin:bevel;paint-order:markers stroke fill" /></g><g
     aria-label="Escalation"
     id="text346"
     style="font-size:5.29167px;font-family:Impact;-inkscape-font-specification:Impact;letter-spacing:5.29167px;stroke-linecap:square;stroke-linejoin:bevel;paint-order:markers stroke fill"
     transform="translate(-26.067048,-98.563612)" /><path
     id="rect400"
     style="stroke-width:0.759555;stroke-linecap:square;stroke-linejoin:bevel;paint-order:markers stroke fill"
     d="m 87.143512,2.7505379 c 1.77418,0.26741 3.58617,0.61587 5.36099,0.71129 0.68232,0.0303 1.28422,0.0599 1.33755,0.0658 0.14492,0.0158 -0.0249,0.0376 -2.00941,0.25846 -3.57764,0.39802 -5.3401,0.60594 -5.35882,0.63221 -0.0104,0.0147 0.40232,0.0845 0.91728,0.15515 0.51496,0.0706 1.29344,0.18361 1.72998,0.251 0.67699,0.1045 1.63759,0.22582 3.50243,0.44238 0.21311,0.0247 0.61349,0.0723 0.88973,0.10549 0.53617,0.0646 3.68231,0.34895 4.61142,0.41679 0.30706,0.0225 1.29604,0.0652 2.197748,0.095 4.81678,0.15917 7.47823,-0.22031 8.45543,-1.20562 0.74567,-0.75185 0.94357,-2.11566 0.438,-3.01836 -0.27425,-0.401907 -0.57758,-0.833962 -0.99263,-1.035843 -1.18921,-0.579156 -4.4158,-0.750945 -10.023818,-0.533685 -1.93436,0.07494 -2.677,0.105707 -3.06612,0.127029 -0.21051,0.01154 -0.62977,0.03246 -0.93169,0.04649 -0.30193,0.01402 -0.90514,0.04851 -1.34049,0.07662 -0.43535,0.0281 -0.90938,0.05751 -1.05341,0.06535 -0.14403,0.0079 -0.6212,0.03424 -1.06039,0.05868 -1.22665,0.06822 -3.05695,0.159545 -3.55591,0.177423 -0.24667,0.0088 -0.87265,0.03479 -1.39107,0.05768 -0.51841,0.02288 -1.08731,0.0436 -1.26421,0.04603 l -1.24864,0.04739 c -0.46377,0.0195 -1.01785,0.04209 -1.23128,0.05019 -2.63643,0.100035 -3.32782,0.127921 -3.3691,0.135888 -0.0744,0.01436 0.30627,0.06253 0.53876,0.06817 0.11341,0.0027 1.09625,0.08062 2.18408,0.173041 1.08784,0.09242 2.10524,0.174761 2.2609,0.182982 0.15565,0.0082 1.1394,0.08478 2.1861,0.170175 1.0467,0.0854 2.2969,0.18544 2.77821,0.22235 2.14087,0.1642 2.91389,0.22985 2.94197,0.24986 -1.81334,0.55213 -2.16853,0.34453 -4.43359,0.70459 z m 20.928128,-0.58586 c 0.29502,0.47591 0.31371,1.16811 0.0419,1.55286 -0.3683,0.52138 -1.77198,0.84286 -3.2902,0.75354 -0.6881,-0.0405 -1.67715,-0.19937 -1.51362,-0.24315 0.3933,-0.1053 1.69388,-0.40714 2.02593,-0.47019 0.20108,-0.0382 0.3629,-0.0855 0.35959,-0.10524 -0.004,-0.0197 -0.18502,-0.0479 -0.40383,-0.0627 -0.21879,-0.0148 -0.41039,-0.0358 -0.42577,-0.0468 -0.0154,-0.011 -0.75834,-0.10167 -1.65103,-0.20158 -0.89269,-0.0999 -2.28632,-0.25763 -3.09695,-0.35048 -0.810628,-0.0928 -1.597918,-0.18023 -1.749508,-0.19415 -0.1516,-0.0139 -0.2318,-0.0339 -0.17824,-0.0442 0.0827,-0.0161 1.945618,-0.10714 2.914008,-0.14245 0.16483,-0.006 0.72815,-0.0294 1.2518,-0.0519 2.53615,-0.10903 3.01087,-0.13824 2.85192,-0.17548 -0.0594,-0.0139 -0.34956,-0.0835 -0.64497,-0.15463 -0.29541,-0.0712 -1.18772,-0.27607 -1.98291,-0.45537 -0.79519,-0.17931 -1.45015,-0.343434 -1.45546,-0.364727 -0.0141,-0.0568 1.25328,-0.220673 2.16663,-0.280136 2.55701,-0.166473 4.26432,0.203789 4.78068,1.036773 z M 73.307184,1.1423739 6.360571,1.1610239 C 4.96873,1.1614929 3.781177,1.3886889 2.79761,1.8433579 1.814043,2.2887479 1.09923,2.9101479 0.65384,3.7080979 0.217732,4.5060979 0,5.7682079 0,7.4940879 c 0,1.197 0.153104,2.18072 0.459309,2.9508701 0.315482,0.77016 0.709682,1.37313 1.182905,1.80924 0.473227,0.43611 1.438084,1.1365 2.894875,2.10152 1.456794,0.95573 2.370941,1.63777 2.7421,2.04601 0.361879,0.40828 0.542819,1.27619 0.542819,2.60309 0,0.60313 -0.09743,1.05747 -0.292287,1.36368 -0.185579,0.3062 -0.473395,0.4593 -0.863108,0.4593 -0.389716,0 -0.663122,-0.1203 -0.820861,-0.36155 -0.148462,-0.24125 -0.223023,-0.78407 -0.223023,-1.62846 v -2.7421 H 0.180776 v 1.47519 c 0,1.68877 0.171501,2.99264 0.514819,3.91126 0.343322,0.91861 1.067086,1.67469 2.17128,2.26854 1.113472,0.59386 2.454619,0.89111 4.022761,0.89111 1.428953,0 2.681627,-0.2555 3.757982,-0.76585 1.076357,-0.51963 1.800124,-1.1599 2.171279,-1.92074 0.380438,-0.76087 0.57033,-1.64239 0.57033,-3.54921 -0.127755,-5.196 -1.744168,-5.78772 -5.943017,-8.6153601 -1.917931,-1.17827 -1.839951,-3.37224 0.456598,-3.62947 23.909637,-2.67802 49.677851,-2.29578 73.619764,-1.78595 0.75165,-0.0938 1.1824,-0.0902 2.4169,-0.1226 1.88648,-0.20995 4.08878,-0.61938 3.95102,-0.6344 -0.0507,-0.006 -0.62271,-0.034 -1.27133,-0.0628 -0.64861,-0.0289 -2.08071,-0.097 -3.18224,-0.1518 -1.78998,-0.11593 -3.74899,-0.15927 -5.4331,-0.25521 -0.38121,-0.0238 -1.04293,-0.0592 -1.47028,-0.0786 -0.42735,-0.0193 -1.15556,-0.0537 -1.61864,-0.0766 -1.550563,-0.0765 -3.19035,-0.15543 -4.144585,-0.19945 -0.520291,-0.0239 -0.939581,-0.0522 -0.931881,-0.0628 0.0077,-0.0108 0.571726,-0.0349 1.253643,-0.053 0.681917,-0.0182 1.828347,-0.052 2.547077,-0.0757 0.718726,-0.0236 1.929516,-0.0614 2.691006,-0.0835 0.7615,-0.0221 2.10039,-0.062 2.97495,-0.0889 0.87456,-0.0269 2.34361,-0.0709 3.26478,-0.0982 2.66212,-0.079 3.19801,-0.0996 3.16749,-0.12134 -0.0267,-0.019 -0.7615,-0.0817 -2.79661,-0.23776 -0.45753,-0.0351 -1.6459,-0.13007 -2.6409,-0.21123 -0.995,-0.0812 -1.92997,-0.15431 -2.07794,-0.16211 -0.14797,-0.008 -1.11557,-0.086 -2.14967,-0.173899 -0.90756,-0.127688 -1.79744,-0.230099 -2.765078,-0.282746 z m 39.754746,7.583194 2.32476,15.6173401 h -4.15755 l -0.20258,-2.80707 h -1.45659 l -0.24115,2.80707 h -4.20579 l 2.06431,-15.6173401 z m -2.15112,10.0417801 c -0.20579,-1.768487 -0.41157,-3.951763 -0.61736,-6.54983 -0.41158,2.98392 -0.66882,5.167197 -0.77171,6.54983 z M 102.96916,8.7255679 100.90486,24.342908 H 94.740882 L 92.396832,8.7255679 h 4.28295 c 0.49518,4.3022401 0.848877,7.9388901 1.06109,10.9099501 0.21222,-3.003213 0.434087,-5.67202 0.6656,-8.00642 l 0.27974,-2.9035301 z M 89.162572,17.870248 c 0,1.569127 -0.03858,2.681663 -0.11575,3.33761 -0.07074,0.64952 -0.302253,1.244377 -0.69454,1.78457 -0.385847,0.540187 -0.90996,0.954977 -1.57234,1.24437 -0.66238,0.289387 -1.434083,0.43408 -2.31511,0.43408 -0.836013,0 -1.588423,-0.135047 -2.25723,-0.40514 -0.66238,-0.276527 -1.196143,-0.688103 -1.60129,-1.23473 -0.40514,-0.54662 -0.646297,-1.141473 -0.72347,-1.78456 -0.07717,-0.643087 -0.11575,-1.768487 -0.11575,-3.3762 v -2.67202 c 0,-1.569133 0.03537,-2.678457 0.1061,-3.32797 0.07717,-0.655953 0.308687,-1.254023 0.69454,-1.79421 0.39228,-0.5401934 0.91961,-0.9549868 1.58199,-1.2443801 0.66238,-0.2893867 1.434083,-0.43408 2.31511,-0.43408 0.836013,0 1.585207,0.1382633 2.24758,0.41479 0.668813,0.2701 1.20579,0.67846 1.61093,1.2250801 0.405147,0.54662 0.646307,1.141473 0.72348,1.78456 0.07717,0.643087 0.11575,1.76849 0.11575,3.37621 z m -4.06109,-5.13183 c 0,-0.726687 -0.0418,-1.189707 -0.1254,-1.38906 -0.07717,-0.205793 -0.241153,-0.30869 -0.49196,-0.30869 -0.21222,0 -0.376207,0.0836 -0.49196,0.25081 -0.109327,0.160773 -0.16399,0.643087 -0.16399,1.44694 v 7.2926 c 0,0.906747 0.03537,1.46623 0.10611,1.67845 0.07717,0.21222 0.250807,0.31833 0.5209,0.31833 0.276527,0 0.453377,-0.122187 0.53055,-0.36656 0.07717,-0.244373 0.11575,-0.826367 0.11575,-1.74598 z M 75.606792,8.7255679 V 24.342908 h -3.559485 l -2.112537,-7.09967 v 7.09967 H 66.539276 V 8.7255679 h 3.395494 l 2.276524,7.0321401 V 8.7255679 Z m -22.35321,0 h 2.874594 c 1.916396,0 3.212214,0.073953 3.887455,0.22186 0.681671,0.1479067 1.234724,0.5273267 1.659161,1.1382601 0.430868,0.6045 0.646302,1.572343 0.646302,2.90353 0,1.215433 -0.151125,2.032153 -0.453376,2.45016 -0.302251,0.418007 -0.897105,0.66881 -1.784563,0.75241 0.803857,0.19936 1.344049,0.46624 1.620576,0.80064 0.276527,0.334407 0.446945,0.64309 0.511253,0.92605 0.07074,0.276527 0.10611,1.045013 0.10611,2.30546 v 4.11897 h -3.771699 v -5.18971 c 0,-0.836007 -0.06752,-1.35369 -0.202572,-1.55305 -0.128617,-0.199353 -0.472668,-0.29903 -1.032153,-0.29903 v 7.04179 h -4.061088 z m 4.061088,2.6720201 v 3.47266 c 0.456591,0 0.774918,-0.06109 0.954982,-0.18328 0.186495,-0.128613 0.279743,-0.536973 0.279743,-1.22508 v -0.85852 c 0,-0.495173 -0.09003,-0.81993 -0.270096,-0.97427 -0.173633,-0.15434 -0.495176,-0.23151 -0.964629,-0.23151 z M 42.398758,8.7255679 h 6.771695 v 3.1253901 h -2.710607 v 2.96141 h 2.536974 v 2.97106 h -2.536974 v 3.43408 h 2.980703 v 3.1254 h -7.041791 z m -12.562218,0 h 4.090027 c 1.106107,0 1.954981,0.086813 2.54662,0.26044 0.59807,0.1736333 1.045015,0.42444 1.340834,0.75242 0.302251,0.3279731 0.504823,0.7266871 0.607716,1.1961401 0.109325,0.46302 0.163987,1.183273 0.163987,2.16076 v 1.36013 c 0,0.996787 -0.102894,1.723473 -0.308681,2.18006 -0.205787,0.456593 -0.585208,0.807077 -1.138262,1.05145 -0.546623,0.244373 -1.263664,0.36656 -2.151123,0.36656 h -1.09003 v 6.28938 H 29.83654 Z m 4.061088,2.6720201 v 3.97427 c 0.115755,0.0067 0.215434,0.01 0.299035,0.01 0.37299,0 0.630224,-0.09003 0.771703,-0.27009 0.14791,-0.186493 0.221865,-0.56913 0.221865,-1.14791 v -1.28296 c 0,-0.53376 -0.0836,-0.881027 -0.250804,-1.0418 -0.167202,-0.160767 -0.514468,-0.24115 -1.041799,-0.24115 z M 25.618362,8.7255679 V 19.162848 c 0,1.18328 -0.03858,2.016077 -0.115755,2.49839 -0.07717,0.47588 -0.305466,0.96784 -0.684887,1.47588 -0.379421,0.501607 -0.881028,0.884243 -1.504821,1.14791 -0.617363,0.257233 -1.347265,0.38585 -2.189707,0.38585 -0.932475,0 -1.755625,-0.15434 -2.46945,-0.46302 -0.713826,-0.30868 -1.247587,-0.71061 -1.601284,-1.20579 -0.353697,-0.495173 -0.5627,-1.016073 -0.627009,-1.5627 -0.06431,-0.553053 -0.09646,-1.710607 -0.09646,-3.47266 V 8.7255679 h 4.061088 V 20.436158 c 0,0.681673 0.03537,1.118973 0.106109,1.3119 0.07717,0.186493 0.228295,0.27974 0.453375,0.27974 0.257235,0 0.421222,-0.102893 0.491961,-0.30868 0.07717,-0.21222 0.115756,-0.707397 0.115756,-1.48553 V 8.7255679 Z"
     sodipodi:nodetypes="ccccccscccssccsssscccscccscscscccscssscssscccscscscsssccccsccccscscsccsccscccccccccccccccccsscsscccccccccccccccccccccccccccsccsscssssccsscssssscscsscssssccccccccccccsccsscscsccsccccccccssccccccccccccccccscccssscsccccccscssscccscccssscsccscscscc" /></svg>
